<svg width="61" height="32" viewBox="0 0 61 32" fill="none" xmlns="http://www.w3.org/2000/svg">
<path d="M20.347 0.474886L15.7443 27.2511L17.9726 27.653L17.9361 27.8356H12.3836L16.6941 2.66667L15.6712 4.45662C14.6849 2.92237 12.274 2.19178 11.105 2.19178C9.57078 2.19178 8.21918 3.6895 8.14612 4.3105L6.86758 11.105H12.0913L12.0183 11.5068L10.5936 11.6895L6.79452 11.5799L3.3242 30.137L0.0365297 32H0L3.43379 11.5068H0.949772L1.02283 10.9954L3.50685 10.8493H3.54338L3.76256 9.49772C4.16438 7.05023 10.0822 0.109588 12.5662 0C13.6986 0.109588 16.1826 0.146119 17.3151 0.657535L19.9087 0.438355L20.347 0.474886Z" fill="black"/>
<path d="M22.998 28.3105C21.4272 27.9452 19.5642 26.5205 19.6007 22.9772C19.6007 16.2557 26.3953 10.0091 32.0574 10.1918C33.2263 10.6301 35.0163 11.3607 35.0528 15.1598C35.0528 21.2237 28.9889 28.347 22.998 28.3105ZM25.2628 27.1416C29.135 27.5069 31.0345 21.2968 31.5094 15.7078C31.6555 13.7717 30.8519 11.5799 29.0619 11.4338C25.409 11.0685 23.1441 18.0822 23.1441 23.0137C23.1441 25.0959 23.7651 26.9954 25.2628 27.1416Z" fill="black"/>
<path d="M35.4892 10.9589L35.5257 10.6667H41.1513L41.5531 26.8128L41.5896 26.9589L47.2152 17.0228L46.5211 11.3973L49.6627 10.6667L51.4161 26.8128V26.8858C53.0965 23.7078 57.4435 15.4886 57.5531 14.7945C57.9914 13.4795 57.0051 10.8493 55.1421 10.8493C55.1787 10.7763 55.1786 10.7397 55.1786 10.6667H60.2563L51.6353 27.9087H50.8681L48.6033 28.3836L47.3248 17.8265L41.7723 27.9087H41.0051L38.7403 28.3836L37.6809 11.1781L35.4892 10.9589Z" fill="black"/>
</svg>
