<svg width="41" height="40" viewBox="0 0 41 40" fill="none" xmlns="http://www.w3.org/2000/svg">
<path d="M22.1667 25C22.1667 25 23.8334 28.3333 23.8334 31.6667C23.8334 35 20.5001 38.3333 20.5001 38.3333C20.5001 38.3333 17.1667 35 17.1667 31.6667C17.1667 28.3333 18.8334 25 18.8334 25" stroke="black" stroke-width="1.5" stroke-miterlimit="1.5" stroke-linecap="round" stroke-linejoin="round"/>
<path d="M25.5 18.3334C25.5 18.3334 28.8333 16.6667 32.1667 16.6667C35.5 16.6667 38.8333 20.0001 38.8333 20.0001C38.8333 20.0001 35.5 23.3334 32.1667 23.3334C28.8333 23.3334 25.5 21.6667 25.5 21.6667" stroke="black" stroke-width="1.5" stroke-miterlimit="1.5" stroke-linecap="round" stroke-linejoin="round"/>
<path d="M20.4992 24.9993C23.2607 24.9993 25.4992 22.7608 25.4992 19.9993C25.4992 17.2379 23.2607 14.9993 20.4992 14.9993C17.7379 14.9993 15.4993 17.2379 15.4993 19.9993C15.4993 22.7608 17.7379 24.9993 20.4992 24.9993Z" stroke="black" stroke-width="1.5" stroke-miterlimit="1.5" stroke-linecap="round" stroke-linejoin="round"/>
<path d="M25.2142 22.3569C25.2142 22.3569 28.7497 23.5354 31.1067 25.8924C33.4637 28.2494 33.4637 32.9636 33.4637 32.9636C33.4637 32.9636 28.7497 32.9636 26.3927 30.6066C24.0357 28.2494 22.8572 24.7139 22.8572 24.7139" stroke="black" stroke-width="1.5" stroke-miterlimit="1.5" stroke-linecap="round" stroke-linejoin="round"/>
<path d="M15.5001 18.3334C15.5001 18.3334 12.1667 16.6667 8.83341 16.6667C5.50008 16.6667 2.16675 20.0001 2.16675 20.0001C2.16675 20.0001 5.50008 23.3334 8.83341 23.3334C12.1667 23.3334 15.5001 21.6667 15.5001 21.6667" stroke="black" stroke-width="1.5" stroke-miterlimit="1.5" stroke-linecap="round" stroke-linejoin="round"/>
<path d="M15.786 22.3569C15.786 22.3569 12.2504 23.5354 9.89341 25.8924C7.53638 28.2494 7.53638 32.9636 7.53638 32.9636C7.53638 32.9636 12.2504 32.9636 14.6074 30.6066C16.9645 28.2494 18.1429 24.7139 18.1429 24.7139" stroke="black" stroke-width="1.5" stroke-miterlimit="1.5" stroke-linecap="round" stroke-linejoin="round"/>
<path d="M22.1667 15.0001C22.1667 15.0001 23.8334 11.6667 23.8334 8.33341C23.8334 5.00008 20.5001 1.66675 20.5001 1.66675C20.5001 1.66675 17.1667 5.00008 17.1667 8.33341C17.1667 11.6667 18.8334 15.0001 18.8334 15.0001" stroke="black" stroke-width="1.5" stroke-miterlimit="1.5" stroke-linecap="round" stroke-linejoin="round"/>
<path d="M22.8569 15.2862C22.8569 15.2862 24.0354 11.7507 26.3924 9.39364C28.7494 7.03662 33.4636 7.03662 33.4636 7.03662C33.4636 7.03662 33.4636 11.7507 31.1066 14.1077C28.7494 16.4647 25.2139 17.6433 25.2139 17.6433" stroke="black" stroke-width="1.5" stroke-miterlimit="1.5" stroke-linecap="round" stroke-linejoin="round"/>
<path d="M18.143 15.2862C18.143 15.2862 16.9645 11.7507 14.6074 9.39364C12.2504 7.03662 7.53638 7.03662 7.53638 7.03662C7.53638 7.03662 7.53638 11.7507 9.89339 14.1077C12.2504 16.4647 15.786 17.6433 15.786 17.6433" stroke="black" stroke-width="1.5" stroke-miterlimit="1.5" stroke-linecap="round" stroke-linejoin="round"/>
</svg>
