<svg width="46" height="46" viewBox="0 0 46 46" fill="none" xmlns="http://www.w3.org/2000/svg">
<path d="M25 17C25 17 27 13 27 9C27 5 23 1 23 1C23 1 19 5 19 9C19 13 21 17 21 17M23 29C24.5913 29 26.1174 28.3679 27.2426 27.2426C28.3679 26.1174 29 24.5913 29 23C29 21.4087 28.3679 19.8826 27.2426 18.7574C26.1174 17.6321 24.5913 17 23 17C21.4087 17 19.8826 17.6321 18.7574 18.7574C17.6321 19.8826 17 21.4087 17 23C17 24.5913 17.6321 26.1174 18.7574 27.2426C19.8826 28.3679 21.4087 29 23 29Z" stroke="white" stroke-width="1.5" stroke-miterlimit="1.5" stroke-linecap="round" stroke-linejoin="round"/>
<path d="M17 21C17 21 13 19 9 19C5 19 1 23 1 23C1 23 5 27 9 27C13 27 17 25 17 25M25 29C25 29 27 33 27 37C27 41 23 45 23 45C23 45 19 41 19 37C19 33 21 29 21 29M29 21C29 21 33 19 37 19C41 19 45 23 45 23C45 23 41 27 37 27C33 27 29 25 29 25M20.172 17.344C20.172 17.344 18.758 13.1 15.928 10.272C13.1 7.44397 7.444 7.44397 7.444 7.44397C7.444 7.44397 7.444 13.1 10.272 15.93C13.1 18.758 17.344 20.172 17.344 20.172M17.344 25.828C17.344 25.828 13.1 27.242 10.272 30.072C7.444 32.9 7.444 38.556 7.444 38.556C7.444 38.556 13.1 38.556 15.928 35.728C18.756 32.9 20.172 28.656 20.172 28.656M28.658 25.828C28.658 25.828 32.898 27.242 35.728 30.072C38.556 32.9 38.556 38.556 38.556 38.556C38.556 38.556 32.9 38.556 30.072 35.728C27.244 32.9 25.828 28.656 25.828 28.656M25.828 17.344C25.828 17.344 27.242 13.1 30.072 10.272C32.9 7.44397 38.556 7.44397 38.556 7.44397C38.556 7.44397 38.556 13.1 35.728 15.93C32.9 18.758 28.656 20.172 28.656 20.172" stroke="white" stroke-width="1.5" stroke-miterlimit="1.5" stroke-linecap="round" stroke-linejoin="round"/>
</svg>
