<svg width="104" height="32" viewBox="0 0 104 32" fill="none" xmlns="http://www.w3.org/2000/svg">
<path d="M0.229248 31.5493V1.95305H3.38418V31.5493H0.229248Z" fill="black"/>
<path d="M9.16704 31.5493V6.76056H11.721L12.1217 9.41471C12.3887 8.41315 13.0064 7.64528 13.9746 7.11111C14.9427 6.57695 15.9443 6.30986 16.9792 6.30986C18.7487 6.30986 20.034 6.62702 20.8353 7.26135C21.6699 7.86229 22.2041 8.66354 22.4378 9.6651C22.6715 10.6333 22.7883 11.7016 22.7883 12.8701V31.5493H19.6835V13.3208C19.6835 12.7199 19.6668 12.1356 19.6334 11.5681C19.6 11.0005 19.4665 10.4997 19.2328 10.0657C19.0325 9.59833 18.6819 9.23109 18.1811 8.96401C17.6803 8.69692 16.9459 8.56338 15.9777 8.56338C15.143 8.56338 14.4586 8.73031 13.9245 9.06416C13.4237 9.36463 13.0398 9.73187 12.7727 10.1659C12.539 10.5665 12.372 10.9504 12.2719 11.3177V31.5493H9.16704Z" fill="black"/>
<path d="M30.5563 31.5493V4.20658H25.5986V1.95305H38.7691V4.20658H33.7113V31.5493H30.5563Z" fill="black"/>
<path d="M41.982 31.5493V6.76056H44.5861L44.9366 9.41471C45.3038 8.47992 45.9048 7.81221 46.7394 7.41158C47.5741 7.01096 48.4087 6.76056 49.2433 6.66041C50.1781 6.46009 51.0795 6.4434 51.9476 6.61033V9.06416C51.814 9.03078 51.5803 8.99739 51.2465 8.96401C50.9126 8.93062 50.5454 8.91393 50.1447 8.91393C49.7775 8.91393 49.4269 8.9807 49.0931 9.11424C47.958 9.24778 47.0065 9.6651 46.2386 10.3662C45.4708 11.0339 45.0868 11.952 45.0868 13.1205V31.5493H41.982Z" fill="black"/>
<path d="M61.0583 32C59.389 32 58.0369 31.8164 57.0019 31.4491C55.967 31.0485 55.2158 30.3307 54.7484 29.2958C54.281 28.2608 54.0473 26.7585 54.0473 24.7887V12.4194C54.0473 10.0824 54.5648 8.47992 55.5997 7.61189C56.6681 6.74387 58.4208 6.30986 60.858 6.30986C63.2283 6.30986 64.931 6.74387 65.9659 7.61189C67.0343 8.47992 67.5685 10.0824 67.5685 12.4194V18.8294H57.1522V25.8404C57.1522 27.4429 57.4026 28.5613 57.9033 29.1956C58.4041 29.7966 59.4224 30.097 60.9581 30.097C62.3603 30.097 63.2951 29.7966 63.7625 29.1956C64.2299 28.5947 64.4636 27.4763 64.4636 25.8404V22.6354H67.5685V24.7387C67.5685 26.675 67.3347 28.1774 66.8673 29.2457C66.4 30.2806 65.6822 30.9984 64.714 31.3991C63.7792 31.7997 62.5606 32 61.0583 32ZM57.1522 17.2269H64.4636V12.3192C64.4636 10.9171 64.2299 9.8988 63.7625 9.26448C63.2951 8.63015 62.3269 8.31299 60.858 8.31299C59.389 8.31299 58.4041 8.63015 57.9033 9.26448C57.4026 9.8988 57.1522 10.9171 57.1522 12.3192V17.2269Z" fill="black"/>
<path d="M72.0094 31.5493V6.76056H74.5634L74.964 9.41471C75.2311 8.41315 75.8487 7.64528 76.8169 7.11111C77.7851 6.57695 78.7866 6.30986 79.8216 6.30986C81.591 6.30986 82.8764 6.62702 83.6776 7.26135C84.5122 7.86229 85.0464 8.66354 85.2801 9.6651C85.5138 10.6333 85.6307 11.7016 85.6307 12.8701V31.5493H82.5258V13.3208C82.5258 12.7199 82.5091 12.1356 82.4757 11.5681C82.4423 11.0005 82.3088 10.4997 82.0751 10.0657C81.8748 9.59833 81.5242 9.23109 81.0235 8.96401C80.5227 8.69692 79.7882 8.56338 78.82 8.56338C77.9854 8.56338 77.301 8.73031 76.7668 9.06416C76.266 9.36463 75.8821 9.73187 75.615 10.1659C75.3813 10.5665 75.2144 10.9504 75.1142 11.3177V31.5493H72.0094Z" fill="black"/>
<path d="M96.0528 31.9499C94.8175 31.9499 93.7993 31.7997 92.998 31.4992C92.1968 31.1654 91.5624 30.7147 91.095 30.1471C90.661 29.5462 90.3606 28.8117 90.1936 27.9437C90.0267 27.0423 89.9433 26.024 89.9433 24.8889V12.5196C89.9433 11.6182 90.0267 10.8002 90.1936 10.0657C90.394 9.29786 90.7111 8.64684 91.1451 8.11268C91.5791 7.54512 92.1634 7.11111 92.8979 6.81064C93.6323 6.47679 94.5671 6.30986 95.7022 6.30986C97.0377 6.30986 98.0726 6.51017 98.8071 6.9108C99.575 7.31143 100.126 7.79552 100.46 8.36307V0H103.565V31.5493H101.411L101.111 29.1956C100.91 29.6296 100.61 30.0636 100.209 30.4977C99.8421 30.8983 99.3246 31.2488 98.6569 31.5493C98.0225 31.8164 97.1545 31.9499 96.0528 31.9499ZM96.6037 30.0469C97.5718 30.0469 98.323 29.88 98.8572 29.5462C99.3913 29.1789 99.7586 28.7115 99.9589 28.144C100.193 27.5764 100.326 26.9588 100.36 26.2911C100.426 25.59 100.46 24.9056 100.46 24.2379V10.6667C100.36 10.3662 100.176 10.0323 99.9088 9.6651C99.6751 9.29786 99.3079 8.9807 98.8071 8.71361C98.3063 8.44653 97.6219 8.31299 96.7539 8.31299C95.7857 8.31299 95.0512 8.44653 94.5505 8.71361C94.0497 8.9807 93.6824 9.34794 93.4487 9.81534C93.2484 10.2493 93.1316 10.7501 93.0982 11.3177C93.0648 11.8852 93.0481 12.4695 93.0481 13.0704V25.2895C93.0481 26.0908 93.0982 26.8586 93.1983 27.5931C93.2985 28.3276 93.599 28.9285 94.0997 29.3959C94.6005 29.8299 95.4352 30.0469 96.6037 30.0469Z" fill="black"/>
</svg>
