<svg width="68" height="32" viewBox="0 0 68 32" fill="none" xmlns="http://www.w3.org/2000/svg">
<path d="M8.3122 32C6.88277 32 5.57947 31.7237 4.40229 31.1712C3.22511 30.6186 2.28818 29.8018 1.59148 28.7207C0.906795 27.6276 0.564453 26.2883 0.564453 24.7027V16.7568H6.83472V24.3243C6.83472 24.8769 6.94283 25.3213 7.15905 25.6577C7.38728 25.994 7.74764 26.1622 8.24013 26.1622C9.18908 26.1622 9.66355 25.5796 9.66355 24.4144V0H16.0599V23.7838C16.0599 25.4655 15.7296 26.9249 15.069 28.1622C14.4083 29.3874 13.4954 30.3363 12.3302 31.009C11.1651 31.6697 9.82572 32 8.3122 32Z" fill="black"/>
<path d="M25.8437 32C23.2011 32 21.2551 31.2613 20.0059 29.7838C18.7566 28.2943 18.132 26.1081 18.132 23.2252V0H24.2942V22.973C24.2942 23.5015 24.3242 24.012 24.3843 24.5045C24.4443 24.985 24.5825 25.3814 24.7987 25.6937C25.0149 26.006 25.3633 26.1622 25.8437 26.1622C26.3362 26.1622 26.6906 26.012 26.9068 25.7117C27.123 25.3994 27.2551 24.997 27.3032 24.5045C27.3633 24.012 27.3933 23.5015 27.3933 22.973V0H33.5554V23.2252C33.5554 26.1081 32.9308 28.2943 31.6816 29.7838C30.4323 31.2613 28.4864 32 25.8437 32Z" fill="black"/>
<path d="M35.9879 31.7117V0H42.5104L45.4293 15.1892V0H51.5554V31.7117H45.3572L42.1861 15.8559V31.7117H35.9879Z" fill="black"/>
<path d="M54.3663 31.7117V0H67.0509V6.12613H60.8167V12.3063H66.7987V18.2703H60.8167V25.5315H67.4654V31.7117H54.3663Z" fill="black"/>
</svg>
