<svg width="168" height="32" viewBox="0 0 168 32" fill="none" xmlns="http://www.w3.org/2000/svg">
<path d="M52.7378 19.7835C54.2205 23.7949 56.1077 28.6724 58.534 31.9544H45.5037C45.5486 30.5413 45.0993 28.6268 44.5152 26.5299L39.8872 13.037C39.0784 10.849 38.3145 8.93447 37.5507 7.24786L27.7105 31.9088H26.4075L24.745 28.9003V28.8547L15.8934 12.5356C14.7251 10.6211 13.7366 8.88889 12.6582 7.15669L7.31131 25.2991C6.77213 27.5783 6.18801 30.0855 6.4576 31.9544L0.796143 32C1.64985 30.4501 2.77316 27.4416 3.49207 25.2991L10.3218 3.78348C9.42313 2.59829 8.38968 1.36752 7.22145 0.0455829H19.5778C20.6562 2.64388 21.6447 4.64957 22.8129 6.97436L29.3281 19.0085L36.1578 4.19373C35.2591 2.41596 34.4504 1.04843 33.7764 0.0455829H46.1777C46.9415 3.69231 47.6604 5.97151 48.604 8.66097L52.7378 19.7835Z" fill="black"/>
<path d="M62.1493 31.9544C64.7104 29.584 67.631 25.4815 69.6979 22.245C73.4273 16.2735 77.1117 10.2564 80.8411 4.23932C78.9989 2.41596 76.7972 0.820513 74.5057 0.273503V0.0455829H90.5914L102.633 18.6439L104.835 22.1083C107.126 25.7094 110.766 30.8604 112.608 31.9544H96.3427C97.1964 30.906 96.2079 28.3989 95.3093 26.5299L92.7931 22.2906H73.6969L70.6864 27.3504C69.7878 28.9915 69.3385 30.5413 69.9226 31.9544H62.1493ZM74.91 20.1937H91.535L85.4691 10.0741C84.885 9.16239 84.0313 7.88604 82.9978 6.60969L74.91 20.1937Z" fill="black"/>
<path d="M156.331 22.7464C159.521 25.7094 163.79 29.4929 167.384 31.9544H165.452C165.318 31.9544 154.219 31.9544 151.119 31.9544H147.749C147.749 28.8547 142.177 22.9288 140.74 21.4701L137.549 18.2792L127.305 28.5812C126.137 29.9031 125.373 31.1795 125.642 31.9544H118.139C121.464 29.5385 124.115 27.3048 126.047 25.5727L135.438 16.0912L132.921 13.584C132.921 13.584 124.249 4.60399 117.555 0H136.741C136.741 2.18803 139.661 5.74359 141.863 8.11396L144.334 10.6211L146.131 12.4444L154.354 4.33049C155.972 2.68946 157.365 1.00285 157.05 0.0455829H164.554C160.734 2.82621 157.724 5.37892 155.657 7.24786L148.243 14.5869L156.331 22.7464Z" fill="black"/>
</svg>
