<svg width="134" height="32" viewBox="0 0 134 32" fill="none" xmlns="http://www.w3.org/2000/svg">
<path d="M34.0536 31.3425H29.1879L7.31388 3.37534V28.0548L12.7933 31.2548V31.3425H0.256348V31.2548L5.7358 28.0548V2.93699L0.300183 0.745207V0.657534H10.3385L30.2837 26.4767V3.94521L24.8043 0.745207V0.657534H37.2974V0.745207L31.818 3.94521V28.4493L34.0536 31.3425Z" fill="black"/>
<path d="M40.3676 0.701368V0.657534H55.7978V0.745207L49.8361 3.8137V28.1863L55.7978 31.2548V31.3425H40.3676V31.2548L46.3293 28.1863V3.8137L40.3676 0.701368Z" fill="black"/>
<path d="M93.0861 31.3425H88.2204L66.3464 3.37534V28.0548L71.8259 31.2548V31.3425H59.2889V31.2548L64.7683 28.0548V2.93699L59.3327 0.745207V0.657534H69.3711L89.3163 26.4767V3.94521L83.8368 0.745207V0.657534H96.33V0.745207L90.8505 3.94521V28.4493L93.0861 31.3425Z" fill="black"/>
<path d="M115.958 32C106.27 32 98.6868 25.9069 98.6868 16.0877C98.6868 6.4 106.27 0 115.958 0C125.602 0 133.229 6.4 133.229 16.0877C133.229 25.9069 125.646 32 115.958 32ZM103.158 16.0877C103.158 25.2493 108.243 30.6411 115.958 30.6411C123.717 30.6411 128.758 25.2493 128.758 16.0877C128.758 7.10137 123.717 1.31507 115.958 1.31507C108.243 1.31507 103.158 7.10137 103.158 16.0877Z" fill="black"/>
</svg>
