<svg width="1280" height="225" viewBox="0 0 1280 225" fill="none" xmlns="http://www.w3.org/2000/svg">
<path d="M8.11955 167.42L9.681 54.4506C9.681 13.1432 1.56145 1.25171 1.56145 1.25171H68.0793C135.846 1.25171 167.7 16.8984 167.7 58.2058C167.7 105.459 113.986 121.419 85.5676 121.419C66.8301 121.419 48.0927 119.228 37.7871 117.976L38.0994 167.42C38.0994 208.414 47.4681 220.306 47.4681 220.306H0C0 220.306 8.11955 208.414 8.11955 167.42ZM37.7871 100.139C52.1525 107.024 69.6407 107.962 82.7569 108.275C113.361 108.275 137.72 90.751 137.72 66.0292C137.72 24.0959 98.3715 12.5174 73.3882 12.5174C62.7704 12.5174 50.591 13.7691 40.5977 16.2726C39.0363 24.4089 37.4748 36.6133 37.4748 54.4506L37.7871 100.139Z" fill="white"/>
<path d="M172.072 180.25L247.646 28.1641C242.025 18.4631 233.281 9.70094 220.165 1.87758V1.25171L269.506 1.56464C272.005 8.76214 275.44 16.5855 280.437 27.5382L349.453 174.93C356.011 188.074 367.253 208.727 378.808 220.306H323.845C327.28 211.857 320.722 190.89 316.35 179.624L304.795 153.338H205.175L193.308 180.25C191.434 185.57 184.563 204.659 187.062 220.306H148.962C157.082 207.163 166.138 190.89 172.072 180.25ZM298.862 140.195L263.573 61.961L254.204 40.9944L210.796 140.195H298.862Z" fill="white"/>
<path d="M399.732 167.42L401.293 54.4506C401.293 13.1432 393.174 1.25171 393.174 1.25171H459.691C533.704 1.25171 565.558 17.8372 565.558 58.2058C565.558 98.5744 523.711 116.099 489.983 119.228L549.943 186.509C558.375 196.836 571.179 207.163 588.98 217.49V219.68H541.511C534.329 209.04 522.462 198.088 514.342 187.448L455.632 118.915C445.014 118.289 435.645 117.038 429.399 116.412L429.711 167.42C429.711 208.414 439.08 220.306 439.08 220.306H391.612C391.612 220.306 399.732 208.414 399.732 167.42ZM429.399 98.5744C443.765 105.459 461.253 107.962 474.369 108.275C511.219 108.275 535.578 90.751 535.578 59.7705C535.578 25.3477 496.229 12.5174 465 12.5174C454.382 12.5174 442.203 13.7691 432.21 16.2726C430.648 24.4089 429.087 36.6133 429.087 54.4506L429.399 98.5744Z" fill="white"/>
<path d="M614.275 167.42L615.837 54.4506C615.837 13.1433 608.029 1.25174 607.717 1.25174L775.417 0L782.912 42.872L780.726 44.1238C761.364 12.8303 688.6 13.7691 647.066 14.395C645.192 22.8442 643.63 35.3616 643.63 54.4506L643.943 101.078H767.61V114.221H643.943L644.255 167.42C644.255 208.414 652.374 220.306 652.374 220.306H606.156C606.156 220.306 614.275 208.414 614.275 167.42Z" fill="white"/>
<path d="M850.054 1.25171C850.054 1.25171 841.935 13.1432 841.935 54.4506L842.247 121.106C842.247 156.154 852.865 204.346 914.698 204.346C969.037 204.346 986.525 158.345 987.15 95.758L987.462 54.4506C987.774 13.1432 979.343 1.25171 979.343 1.25171H1014.01C1014.01 1.25171 1005.89 13.1432 1005.89 54.4506L1006.2 99.5132C1006.2 161.161 988.711 225 905.33 225C842.247 225 808.52 183.38 809.769 117.976L811.018 54.4506C811.955 13.1432 803.211 1.25171 802.898 1.25171H850.054Z" fill="white"/>
<path d="M1042.03 175.556L1065.77 30.3547C1060.46 20.3408 1054.21 10.9528 1045.78 1.25178H1089.19C1095.75 25.6607 1105.43 48.5049 1115.11 71.975L1157.27 172.74L1213.17 30.6676C1209.73 18.4632 1205.67 7.8234 1200.99 1.25178L1244.09 0.938843C1244.4 20.0279 1245.34 35.6746 1247.52 52.2601L1254.39 96.071L1255.95 104.833H1255.64L1262.82 149.27C1266.26 165.855 1270.01 190.264 1280 220.306H1236.59C1239.71 205.911 1236.9 173.366 1234.41 159.597L1234.72 159.284L1220.98 67.281L1218.48 53.8248L1155.4 219.993H1146.34L1074.51 48.5049L1060.46 174.305C1059.52 184.631 1058.27 208.102 1060.77 220.306H1029.54C1033.29 213.734 1038.91 189.951 1042.03 175.556Z" fill="white"/>
</svg>
