<svg width="40" height="40" viewBox="0 0 40 40" fill="none" xmlns="http://www.w3.org/2000/svg">
<circle cx="20" cy="20" r="20" fill="#E8A94C"/>
<path d="M30 16.8621C30.0034 18.4009 29.4106 19.8811 28.346 20.9922C25.9049 23.5232 23.5369 26.1622 21.0059 28.6003C20.4249 29.1503 19.5039 29.1303 18.9489 28.5553L11.6538 20.9932C9.44874 18.7071 9.44874 15.0171 11.6538 12.732C12.1749 12.185 12.8017 11.7495 13.4962 11.452C14.1906 11.1544 14.9383 11.001 15.6938 11.001C16.4493 11.001 17.197 11.1544 17.8915 11.452C18.5859 11.7495 19.2127 12.185 19.7339 12.732L19.9999 13.006L20.2649 12.732C20.7871 12.1863 21.4141 11.7516 22.1083 11.454C22.8025 11.1564 23.5496 11.002 24.3049 11C25.8249 11 27.278 11.624 28.345 12.732C29.41 13.8429 30.0032 15.3232 30 16.8621Z" stroke="black" stroke-width="1.5" stroke-linejoin="round"/>
</svg>
