<svg width="40" height="40" viewBox="0 0 40 40" fill="none" xmlns="http://www.w3.org/2000/svg">
<circle cx="20" cy="20" r="20" fill="#E8A94C"/>
<path d="M27.7918 24.0845H13.7085" stroke="black" stroke-width="1.55" stroke-linejoin="round"/>
<path d="M25.0833 12.1678H16.4167M17.5 12.7094V18.9494C17.5003 19.4667 17.3154 19.967 16.9789 20.3599L11.52 26.7256C11.1839 27.1186 10.9994 27.6189 11 28.1361V28.4178C11 28.9924 11.2283 29.5435 11.6346 29.9498C12.0409 30.3561 12.592 30.5844 13.1667 30.5844H28.3333C28.908 30.5844 29.4591 30.3561 29.8654 29.9498C30.2717 29.5435 30.5 28.9924 30.5 28.4178V28.1361C30.5 27.6186 30.3147 27.1183 29.9778 26.7256L24.5211 20.3599C24.1846 19.967 23.9997 19.4667 24 18.9494V12.7094M20.75 17.5953L20.7608 17.5833M19.6667 10.0119L19.6775 10" stroke="black" stroke-width="1.55" stroke-linecap="round" stroke-linejoin="round"/>
</svg>
