<svg width="40" height="40" viewBox="0 0 40 40" fill="none" xmlns="http://www.w3.org/2000/svg">
<circle cx="20" cy="20" r="20" fill="#E8A94C"/>
<path d="M10 15.1312L19.9768 19.5654L20.653 18.0467L10.6762 13.6125L10 15.1312ZM21.1463 30.9999V18.806H19.4835V30.9999H21.1463ZM20.653 19.5654L30.6298 15.1312L29.9536 13.6125L19.9768 18.0467L20.653 19.5654Z" fill="black"/>
<path d="M10.3381 26.1334V14.8042C10.3382 14.6757 10.3755 14.5499 10.4455 14.442C10.5155 14.3342 10.6153 14.249 10.7328 14.1967L20.0445 10.0575C20.1296 10.0196 20.2218 10 20.3149 10C20.4081 10 20.5003 10.0196 20.5854 10.0575L29.8971 14.1967C30.0146 14.249 30.1144 14.3342 30.1844 14.442C30.2544 14.5499 30.2917 14.6757 30.2918 14.8042V26.1334C30.2917 26.262 30.2544 26.3878 30.1844 26.4956C30.1144 26.6034 30.0146 26.6886 29.8971 26.7409L20.5854 30.8802C20.5003 30.9181 20.4081 30.9377 20.3149 30.9377C20.2218 30.9377 20.1296 30.9181 20.0445 30.8802L10.7328 26.7409C10.6153 26.6886 10.5155 26.6034 10.4455 26.4956C10.3755 26.3878 10.3382 26.262 10.3381 26.1334Z" stroke="black" stroke-width="1.5" stroke-linecap="round" stroke-linejoin="round"/>
<path d="M15.3264 12.1548L24.9086 16.4138C25.026 16.4661 25.1258 16.5513 25.1959 16.6591C25.2659 16.7669 25.3032 16.8927 25.3032 17.0213V21.0231" stroke="black" stroke-width="1.5" stroke-linecap="round" stroke-linejoin="round"/>
</svg>
